%FSLAX34Y34*%
%MOMM*%
%LNOUTLINE*%
G71*
G01*
%ADD10C, 0.15*%
%LPD*%
G54D10*
G75*
G01X48000Y-400D02*
G03X-2000Y-50400I0J-50000D01*
G01*
G54D10*
G75*
G01X518000Y-50400D02*
G03X468000Y-400I-50000J0D01*
G01*
G54D10*
G75*
G01X-2000Y-670400D02*
G03X48000Y-720400I50000J0D01*
G01*
G54D10*
G75*
G01X468000Y-720400D02*
G03X518000Y-670400I0J50000D01*
G01*
G54D10*
G75*
G01X40500Y-302900D02*
G03X40500Y-267900I0J17500D01*
G01*
G54D10*
X40500Y-267900D02*
X-2000Y-267900D01*
G54D10*
X40500Y-302900D02*
X-2000Y-302900D01*
G54D10*
X-2000Y-50400D02*
X-2000Y-267900D01*
G54D10*
X-2000Y-302900D02*
X-2000Y-670400D01*
G54D10*
X293016Y-720246D02*
X48000Y-720400D01*
G54D10*
X518000Y-50400D02*
X518000Y-670400D01*
G54D10*
G75*
G01X293000Y-42900D02*
G03X328000Y-42900I17500J0D01*
G01*
G54D10*
X328000Y-42900D02*
X328000Y-400D01*
G54D10*
X293000Y-42900D02*
X293000Y-400D01*
G54D10*
X328000Y-400D02*
X468000Y-400D01*
G54D10*
X293000Y-400D02*
X48000Y-400D01*
G54D10*
G75*
G01X328016Y-677746D02*
G03X293016Y-677746I-17500J0D01*
G01*
G54D10*
X293016Y-677746D02*
X293016Y-720246D01*
G54D10*
X328016Y-677746D02*
X328016Y-720246D01*
G54D10*
X468000Y-720400D02*
X328016Y-720246D01*
M02*
